<?xml version="1.0" encoding="UTF-8"?>
<svg id="Layer_2" data-name="Layer 2" xmlns="http://www.w3.org/2000/svg" viewBox="0 0 809.01 168">
  <defs>
    <style>
      .cls-1 {
        fill: none;
        stroke: #bb62ae;
        stroke-miterlimit: 10;
        stroke-width: 5px;
      }
    </style>
  </defs>
  <g id="Silahkan_Pilih" data-name="Silahkan Pilih">
    <path class="cls-1" d="M806.49,160.61c-.67,3.11-16.79,4.64-29.28-2.44-.67-.38-1.3-.77-1.88-1.16-8.05,5.37-17.72,8.49-28.12,8.49H53.29c-28.05,0-50.79-22.74-50.79-50.79v-61.42C2.5,25.24,25.24,2.5,53.29,2.5h693.92c28.05,0,50.79,22.74,50.79,50.79v61.42c0,7.87-1.79,15.32-4.98,21.96.89,3.74,2.08,6.66,3.05,8.71,3.32,7,7.93,12.12,7.93,12.12,2.02,2.24,2.63,2.47,2.49,3.11Z"/>
  </g>
</svg>